<svg xmlns="http://www.w3.org/2000/svg" width="32" height="32" viewBox="0 0 32 32">
  <defs>
    <linearGradient id="figureGradient" x1="0%" y1="0%" x2="100%" y2="100%">
      <stop offset="0%" stop-color="#FF6B6B"/>
      <stop offset="50%" stop-color="#4ECDC4"/>
      <stop offset="100%" stop-color="#45B7D1"/>
    </linearGradient>
    <linearGradient id="baseGradient" x1="0%" y1="0%" x2="100%" y2="0%">
      <stop offset="0%" stop-color="#96CEB4"/>
      <stop offset="100%" stop-color="#FFEAA7"/>
    </linearGradient>
  </defs>
  
  <!-- 手办底座 -->
  <ellipse cx="16" cy="26" rx="12" ry="3" fill="url(#baseGradient)" opacity="0.8"/>
  
  <!-- 手办身体 -->
  <rect x="13" y="12" width="6" height="14" rx="3" fill="url(#figureGradient)"/>
  
  <!-- 手办头部 -->
  <circle cx="16" cy="8" r="4.5" fill="url(#figureGradient)"/>
  
  <!-- 眼睛 -->
  <circle cx="14.5" cy="7.5" r="0.8" fill="#2D3436"/>
  <circle cx="17.5" cy="7.5" r="0.8" fill="#2D3436"/>
  <circle cx="14.7" cy="7.3" r="0.3" fill="#FFFFFF"/>
  <circle cx="17.7" cy="7.3" r="0.3" fill="#FFFFFF"/>
  
  <!-- 微笑 -->
  <path d="M 14 9.5 Q 16 10.5 18 9.5" stroke="#2D3436" stroke-width="0.8" fill="none" stroke-linecap="round"/>
  
  <!-- 手臂 -->
  <rect x="10" y="14" width="3" height="6" rx="1.5" fill="url(#figureGradient)" opacity="0.9"/>
  <rect x="19" y="14" width="3" height="6" rx="1.5" fill="url(#figureGradient)" opacity="0.9"/>
  
  <!-- 装饰性光效 -->
  <circle cx="16" cy="16" r="14" fill="none" stroke="#45B7D1" stroke-width="0.5" opacity="0.3"/>
  <circle cx="16" cy="16" r="11" fill="none" stroke="#4ECDC4" stroke-width="0.3" opacity="0.4"/>
  
  <!-- 魔法星星装饰 -->
  <g opacity="0.7">
    <path d="M6 6 L7 8 L9 7 L7.5 9 L9.5 10.5 L7 9.5 L6 11.5 L5 9.5 L2.5 10.5 L4.5 9 L3 7 L5 8 Z" fill="#FFD93D" transform="scale(0.4)"/>
    <path d="M26 4 L27 6 L29 5 L27.5 7 L29.5 8.5 L27 7.5 L26 9.5 L25 7.5 L22.5 8.5 L24.5 7 L23 5 L25 6 Z" fill="#FFD93D" transform="scale(0.3)"/>
    <path d="M28 20 L29 22 L31 21 L29.5 23 L31.5 24.5 L29 23.5 L28 25.5 L27 23.5 L24.5 24.5 L26.5 23 L25 21 L27 22 Z" fill="#FFD93D" transform="scale(0.25)"/>
  </g>
</svg>